<svg xmlns="http://www.w3.org/2000/svg" viewBox="0 0 54.34 189.05"><defs><style>.cls-1{fill:#00704a;stroke:#00704a;stroke-miterlimit:10;}</style></defs><title>Asset 5</title><g id="Layer_2" data-name="Layer 2"><g id="Layer_1-2" data-name="Layer 1"><path class="cls-1" d="M40.31,131.36c.52-1-2.84-3.17-8-8.07s-6.23-6.88-10.92-12A139.12,139.12,0,0,0,4.86,96c2.9-2.52,23.05-20.4,25.41-39.72a81.28,81.28,0,0,0,.23-13.76,75.65,75.65,0,0,0-4-19A77.7,77.7,0,0,0,15.12,2.36L19.57.62,53.71,54.26a98.27,98.27,0,0,0-13.63,19c-4.2,7.7-7.48,13.86-7.8,22.48a42.51,42.51,0,0,0,1.78,13.1,57.69,57.69,0,0,0,10,20.52,59.28,59.28,0,0,0,8.47,8.95c-.3,1.53-.6,3.05-.89,4.58a28.26,28.26,0,0,0-9.37-5.24c-2.72-.89-8.9-2.91-15.6-.43-8.67,3.2-11.85,11.6-12.49,13.46-3.07,8.92.72,16.76,2.46,20.37a34.89,34.89,0,0,0,12.48,14,2.19,2.19,0,0,1,0,3.27,2.17,2.17,0,0,1-2.45-.43,115.08,115.08,0,0,1-9.36-9c-5-5.29-8.81-9.41-12-15.72-2.58-5-5.9-11.51-4.46-19.42.38-2.08,1.3-7.14,5.57-10.7,1.32-1.1,4.09-3,10.93-3.71C30.38,128.05,39.47,133,40.31,131.36Z"/></g></g></svg>