<svg xmlns="http://www.w3.org/2000/svg" viewBox="0 0 97.11 191.59"><defs><style>.cls-1{fill:#c800a1;stroke:#c800a1;stroke-miterlimit:10;}</style></defs><title>Asset 9</title><g id="Layer_2" data-name="Layer 2"><g id="Layer_1-2" data-name="Layer 1"><path class="cls-1" d="M46.3,4a18.89,18.89,0,0,0-5.39,6c-1.45,2.45-2.84,5.81-3.49,13.55-.17,2-.53,7.2.63,19.57.78,8.33,1.2,12.52,2.54,13.86,5.8,5.78,22.35,3.21,32-5.42C84.3,41.22,82.31,26,82.13,24.82A30.31,30.31,0,0,0,67.55,3.44l-.22-.12A23,23,0,0,0,54.13.62c0,.14,1.94-.26,2.32.47,1.08,2.06-11.21,9.21-10.29,10.78.37.64,2.52-.31,7.43-.24a20.13,20.13,0,0,1,4.35.31c5.48,1.27,8.19,7.53,8.83,9a19.74,19.74,0,0,1,1.17,11.4A23.12,23.12,0,0,1,62.33,44l-.22.23c-1.33,1.38-6.51,6.55-9.15,5.34-1.49-.69-.84-2.66-1.59-14.76a54.14,54.14,0,0,1,0-11.1,26.12,26.12,0,0,1,1.24-6.37c2.29-6.13,6.36-7,6.3-11.24,0-1.72-.75-4-2.49-5C53-.84,47.56,3.16,46.3,4Z"/><path class="cls-1" d="M40.59,57.05c-.26.19-1.76,1.33-4,2.9-2.37,1.69-3.29,2.29-4.94,3.46C29.53,65,28,66.15,25.86,67.88c-4.45,3.54-6.67,5.31-9.33,7.78a67.84,67.84,0,0,0-11.27,13,30.7,30.7,0,0,0-2.84,5.47,28.9,28.9,0,0,0-1.78,7.55,29.73,29.73,0,0,0,.16,7.08C2,117.18,7.1,123.16,9,125.33c3.94,4.54,7.9,7,11.65,9.26a65.4,65.4,0,0,0,16.59,7.2,83.35,83.35,0,0,0,17.55,2.55c3.3.23,6.08.29,8.06.3a47.2,47.2,0,0,0,16.43-4.35c1.28-.61,11.43-5.43,10.59-8.56-.58-2.15-6.27-3.07-10.59-2.55s-5.55,2.41-10.9,3.61a35.66,35.66,0,0,1-9,.6c-5.75-.08-14.07-.2-23.71-4.06A37.72,37.72,0,0,1,24.43,123c-2.46-2.08-6.88-5.8-8.85-12.16a23.41,23.41,0,0,1,1.27-16.36c.61-1.36,2.28-4.75,12.32-13.5,2.48-2.17,3.75-3.22,4.84-4.11,3.39-2.77,6.36-5,8.6-6.55,5.34-3.55,9.56-6.22,12.61-8.1l1-.61c7.34-4.54,11-6.81,10.9-7.35C66.37,51.19,46.24,52.87,40.59,57.05Z"/><polyline class="cls-1" points="54.44 57.58 63.14 90.15 49.72 91.42 41.21 60.15"/><path class="cls-1" d="M73.63,92.56a44.17,44.17,0,0,0-26.6.35c-3.37,1.15-9.47,3.31-14.54,8.92a28.28,28.28,0,0,0-5.82,10.42c-1,3.12-1.65,5.59-.45,8.28a9.08,9.08,0,0,0,6.49,5.1c.62.12,3.64.6,5.59-1.06,2.19-1.86.48-4.32,1.61-9.09.11-.46,1.93-7.68,8.46-11.24a16,16,0,0,1,4-1.5A27.49,27.49,0,0,1,67.14,102c2.11.5,7.24,1.72,10.89,5.85A16.65,16.65,0,0,1,80.71,112,13.31,13.31,0,0,1,82,118a13.11,13.11,0,0,1-2.68,7.19c-3.83,5.23-9.18,5.3-9.12,7.1.09,2.29,8.76,6,15.74,3.39,8.57-3.18,12.33-15,10-23.58-1.44-5.39-5-8.89-7.37-11.13A36.09,36.09,0,0,0,73.63,92.56Z"/><polyline class="cls-1" points="49.72 91.42 61.47 135.7 74.03 131.93 63.14 90.15"/><path class="cls-1" d="M74.94,134.13q3.86,14.77,7.7,29.54a20.74,20.74,0,0,1-3.08,14.45,24.26,24.26,0,0,1-6,6,35.54,35.54,0,0,1-12.34,6.08c-12.43,3.12-25.44-2.48-32.45-9.82a20.13,20.13,0,0,1-5.29-8.93c-.39-1.57-1.56-6.29,1-10.87,1.81-3.21,4.62-4.84,7.18-6.33a21.07,21.07,0,0,1,7-2.76c2.88-.54,5-.27,8.54.16a27.17,27.17,0,0,1,7.7,1.79,16.9,16.9,0,0,1,4.78,2.76,14.51,14.51,0,0,1,4.45,6.16c1.06,3,1.87,9.12-1.88,11.69-2.7,1.85-6.39.93-7.53.65-1.4-.35-4.07-1-5.29-3.08-1.86-3.14,1.56-6.17,0-8.25-1.88-2.51-10-2.25-12.14,1.75-1.4,2.6.26,5.7.86,6.82,2.84,5.31,9.18,6.78,10.87,7.17,2.41.56,8.42,1.95,13.74-1.65,6.28-4.26,6.15-11.8,6.12-12.47q-3.57-13.81-7.15-27.62"/></g></g></svg>