<svg xmlns="http://www.w3.org/2000/svg" viewBox="0 0 184.07 93.53"><defs><style>.cls-1{fill:#622599;stroke:#622599;stroke-miterlimit:10;}</style></defs><title>Asset 8</title><g id="Layer_2" data-name="Layer 2"><g id="Layer_1-2" data-name="Layer 1"><path class="cls-1" d="M151.11,53.6c1.5-7.68-.88-14.67-2.06-18.05-9.74-27.67-43-36.66-66-34.82-9.86.79-28.68,3.24-42.28,22a41.28,41.28,0,0,0-7.5,16.42,50.79,50.79,0,0,0,1.2,21.63c7,23.62,35.3,29,45.28,30.84A80.26,80.26,0,0,0,91.4,92.83c7.86.32,15.89.65,25.59-2.48a53.15,53.15,0,0,0,19.92-11.51c.45-.43,1-1,1.61-1.61,10-10.79,14.66-27.92,12.53-30.11-2.56-2.64-11.49,19.68-32,29.71-15.72,7.68-38,8-50.38-8.41-6.2-8.22-8.12-18.48-8.4-20-.75-4.21-2.9-16.33,2.1-26.44C68.38,9.76,80.59,9.05,86,8.74a29.77,29.77,0,0,1,20.39,6.41c13.15,10.17,23.3,33,18.48,47.12a29.23,29.23,0,0,1-10.41,13.8C92.55,91.81,54,71.5,54,71.41S91.56,94,125.32,79.24C130.15,77.13,148,69.54,151.11,53.6Z"/><polyline class="cls-1" points="0.5 40.99 0.5 54.62 183.57 54.62 183.57 40.99"/></g></g></svg>