<svg xmlns="http://www.w3.org/2000/svg" viewBox="0 0 159.7 153.64"><defs><style>.cls-1{fill:#9dce0a;stroke:#9dce0a;stroke-miterlimit:10;}</style></defs><title>Asset 4</title><g id="Layer_2" data-name="Layer 2"><g id="Layer_1-2" data-name="Layer 1"><path class="cls-1" d="M52.34,4C38.09-4.48,14,3.56,5.75,17A23.6,23.6,0,0,0,2.56,31.74q-1,60.51-2,121l104.55.38q1.34-57.66,2.68-115.31l-9.9-9.2q-.63,53.31-1.27,106.62l-88-.76Q9.23,89.2,9.89,43.92a53.88,53.88,0,0,0,22.79.76c1.82-.35,27.69-5.56,29.93-21.32C63.66,16,59.32,8.09,52.34,4Z"/><path class="cls-1" d="M99.7,34c-2.62-5.36-2.42-9.48-1.79-12.18,3.65-15.43,31.57-25.47,49.15-19.41,2,.7,8.65,3,11.17,8.38,3.85,8.24-4.9,17.43-7.15,19.79-8.69,9.11-20.94,11.16-25,11.79a54.21,54.21,0,0,1-21.89-1.14"/><rect class="cls-1" x="5.43" y="115.08" width="94.92" height="9.13"/></g></g></svg>