<svg xmlns="http://www.w3.org/2000/svg" viewBox="0 0 64.56 131.87"><defs><style>.cls-1{fill:#e4002b;stroke:#e4002b;stroke-miterlimit:10;}</style></defs><title>Asset 20</title><g id="Layer_2" data-name="Layer 2"><g id="Layer_1-2" data-name="Layer 1"><path class="cls-1" d="M61.9,3c.72,16.42,1.38,35.12,1.84,55.77,1,44.34.11,55.6-8.64,63.76-9,8.39-23.05,10.44-33.77,7.79C18.5,129.58,6,126.48,1.82,116c-.28-.72-3.19-8.45.64-15.33,8-14.31,40.27-16.35,51.44-3.84,3.67,4.11,5.32,10.26,3.6,11.8-2.88,2.56-12.55-10-26.81-9.44-8,.29-17.08,4.64-17.36,9.52s8.67,10.18,16.41,10.7A22.15,22.15,0,0,0,50,108.19a19.48,19.48,0,0,0,2.27-8.09c1.23-18,0-56.58-.13-61.11L50.77.62Z"/></g></g></svg>