<svg xmlns="http://www.w3.org/2000/svg" viewBox="0 0 109.51 154.79"><defs><style>.cls-1,.cls-2{fill:#0689d8;}.cls-1{stroke:#0689d8;stroke-miterlimit:10;}</style></defs><title>Asset 6</title><g id="Layer_2" data-name="Layer 2"><g id="Layer_1-2" data-name="Layer 1"><path class="cls-1" d="M58.4,3.13a41.52,41.52,0,0,0,5,12c1.53,2.47,4.76,6.88,19.38,18,8,6.06,11.05,7.44,16.68,13.17,3.83,3.91,6.37,7.29,7.94,11.74A29.81,29.81,0,0,1,109,67.88c0,3.8-.75,6.35-2.08,11-2.52,8.72-5.29,12.77-8.05,15.49C97.19,96,96.61,96.09,96.29,96c-1.6-.74,3.1-8.49,1.46-17.74a29.32,29.32,0,0,0-5.46-11.89c-1.7-2.4-3.66-4.27-7.53-7.92-5-4.7-7.44-7-10.65-9.29a54.58,54.58,0,0,0-15.59-7.49"/><rect class="cls-1" x="43.5" y="0.65" width="15.21" height="33.42" rx="0.39" transform="translate(-0.35 1.07) rotate(-1.19)"/><rect class="cls-1" x="45.01" y="66.77" width="14.74" height="43.41" transform="translate(-1.83 1.11) rotate(-1.19)"/><ellipse class="cls-1" cx="30.66" cy="132.56" rx="30.4" ry="21.39" transform="matrix(0.98, -0.18, 0.18, 0.98, -22.98, 7.52)"/><rect class="cls-1" x="44.3" y="33.14" width="14.74" height="42.8" transform="translate(-1.12 1.09) rotate(-1.19)"/><rect class="cls-1" x="45.28" y="110.16" width="14.92" height="14.38" rx="0.97" transform="translate(2.62 -1.14) rotate(1.27)"/><path class="cls-2" d="M58.87,110.71a.13.13,0,0,1,.2,0"/><path class="cls-2" d="M59.62,112l.07,0-1.15.15h.07l-.66-.38.06,0a1.5,1.5,0,1,0,2.12-2.12,1.65,1.65,0,0,0-2-.26A1.5,1.5,0,1,0,59.62,112Z"/><path class="cls-2" d="M59.21,110.82"/><path class="cls-2" d="M59.21,112.32a1.5,1.5,0,0,0,0-3,1.5,1.5,0,0,0,0,3Z"/><path class="cls-2" d="M59.21,110.82"/><path class="cls-2" d="M59.21,112.32a1.5,1.5,0,0,0,0-3,1.5,1.5,0,0,0,0,3Z"/><path class="cls-2" d="M59,124.49"/><path class="cls-2" d="M59,126a1.5,1.5,0,0,0,0-3,1.5,1.5,0,0,0,0,3Z"/><path class="cls-2" d="M59,124.4"/><path class="cls-2" d="M59,125.9a1.5,1.5,0,0,0,0-3,1.5,1.5,0,0,0,0,3Z"/><path class="cls-2" d="M59.24,110.66"/><path class="cls-2" d="M59.24,112.16a1.5,1.5,0,0,0,0-3,1.5,1.5,0,0,0,0,3Z"/><path class="cls-2" d="M59.34,111"/><path class="cls-2" d="M59.34,112.5a1.5,1.5,0,0,0,0-3,1.5,1.5,0,0,0,0,3Z"/></g></g></svg>