<svg xmlns="http://www.w3.org/2000/svg" viewBox="0 0 162.34 159.95"><defs><style>.cls-1,.cls-2{fill:#1428a0;}.cls-1{stroke:#1428a0;stroke-miterlimit:10;}</style></defs><title>Asset 7</title><g id="Layer_2" data-name="Layer 2"><g id="Layer_1-2" data-name="Layer 1"><ellipse class="cls-1" cx="33.67" cy="132.49" rx="33.17" ry="26.97"/><rect class="cls-1" x="51.31" y="28.52" width="15.54" height="105.47" rx="7.77"/><ellipse class="cls-1" cx="128.81" cy="112.08" rx="31.65" ry="26.97"/><path class="cls-1" d="M154.17,12.34h0c4.9.13,6.05-1.18,7.67,9l-1.38,90.79a8.87,8.87,0,0,1-9.1,8.64h0a8.87,8.87,0,0,1-8.64-9.1L145.07,21A8.87,8.87,0,0,1,154.17,12.34Z"/><path class="cls-1" d="M149.22.82,58.09,19c-5.25,1-8.4,7.43-7,14.27l.33,1.69c1.37,6.84,6.73,11.53,12,10.49l91.12-18.14c5.25-1.05,8.41-7.44,7-14.27l-.33-1.69C159.1.81,154.47-.23,149.22.82Z"/><polygon class="cls-1" points="52.75 38.92 51.74 38.38 50.73 31.32 52.75 31.32 52.75 38.92"/><path class="cls-2" d="M59.86,131.92a8,8,0,0,1,3.77-.63,2.47,2.47,0,0,0,1.38-.13,1.77,1.77,0,0,0,.64-1.85,6.62,6.62,0,0,1-.2-2.07v1.66"/><path class="cls-2" d="M60.25,133.36a7.7,7.7,0,0,1,3-.59,4.36,4.36,0,0,0,2.64-.4c2-1.23.9-3.33,1.07-5.13H64v1.66a1.5,1.5,0,0,0,3,0v-1.66c0-2-2.83-1.89-3,0a8.37,8.37,0,0,0,.19,2.06s0,.74.2.52c-.1.11-.77,0-.9,0a9.67,9.67,0,0,0-4,.69c-1.77.71-1,3.61.79,2.89Z"/><path class="cls-2" d="M65.63,128.14"/><path class="cls-2" d="M65.63,129.64a1.5,1.5,0,0,0,0-3,1.5,1.5,0,0,0,0,3Z"/><path class="cls-2" d="M65.63,128.52"/><path class="cls-2" d="M65.63,130a1.5,1.5,0,0,0,0-3,1.5,1.5,0,0,0,0,3Z"/><path class="cls-2" d="M52.22,32V36.8"/><path class="cls-2" d="M50.72,32V36.8a1.5,1.5,0,0,0,3,0V32a1.5,1.5,0,0,0-3,0Z"/></g></g></svg>