<svg xmlns="http://www.w3.org/2000/svg" viewBox="0 0 66.77 152"><defs><style>.cls-1{fill:#e4002b;stroke:#e4002b;stroke-miterlimit:10;}</style></defs><title>Asset 1</title><g id="Layer_2" data-name="Layer 2"><g id="Layer_1-2" data-name="Layer 1"><path class="cls-1" d="M63.82,3c.72,16.42,1.38,35.12,1.84,55.77,1,44.34.1,55.6-8.64,63.76-9,8.39-23.06,10.44-33.78,7.79-2.82-.7-15.38-3.8-19.51-14.32-.28-.72-3.18-8.45.65-15.33,8-14.31,40.26-16.35,51.43-3.84,3.67,4.11,5.32,10.26,3.6,11.8-2.87,2.56-12.54-10-26.81-9.44-8,.29-17.08,4.64-17.36,9.52s8.68,10.18,16.41,10.7a22.18,22.18,0,0,0,20.22-11.18,19.42,19.42,0,0,0,2.26-8.09c1.23-18,0-56.58-.12-61.11Q53.34,19.81,52.68.62Z"/><path class="cls-1" d="M.5,134.41c.17,8,18.56,18,35.38,17,15.69-.86,31-11.24,30.38-16.93a3.86,3.86,0,0,0-1.8-3c-2.27-1-5.66,2.77-6.86,4-7.13,7.26-18.79,8.26-22.78,8.61C17.83,145.59,4.4,128.4,1,132.21A3.13,3.13,0,0,0,.5,134.41Z"/></g></g></svg>