<svg xmlns="http://www.w3.org/2000/svg" viewBox="0 0 235.99 270.16"><defs><style>.cls-1{fill:#ccccce;stroke-width:1.5px;}.cls-1,.cls-4,.cls-5{stroke:#6b696d;}.cls-1,.cls-2,.cls-3,.cls-4,.cls-5,.cls-7{stroke-miterlimit:10;}.cls-2{fill:#875f37;stroke:#40301f;}.cls-3{fill:#e2bb66;stroke:#ab905a;}.cls-3,.cls-5{stroke-width:2px;}.cls-4,.cls-5{fill:#6b696d;}.cls-6{fill:#605136;}.cls-7{fill:none;stroke:#605136;stroke-width:0.25px;}</style></defs><title>Asset 11</title><g id="Layer_2" data-name="Layer 2"><g id="Layer_1-2" data-name="Layer 1"><path class="cls-1" d="M199.1,50a4.91,4.91,0,0,0,.44-2,4.67,4.67,0,0,0-2.34-3.22,5.14,5.14,0,0,0-4.39-.29c-1,.4-1.15.87-2.48,1.9a17.6,17.6,0,0,1-3.71,2.11c-.55.27-3,1-8.29,6-4,3.78-8.28,7.32-12.28,11.12C159.81,71.5,154,77.86,147.63,83.66c-4.27,3.89-5.47,4.75-5.81,6.8-1.24,7.52,11.23,18.24,18.59,15.93,2.57-.8,2.61-2.6,8.29-11,3.68-5.4,3.09-3.8,11.82-15.65,8.54-11.6,5.94-8.83,8.59-12.06.89-1.08,3.34-5.45,8.37-14A22.34,22.34,0,0,0,199.1,50Z"/><path class="cls-2" d="M199.1,50c3.45-1,22.52-6.8,31.73-25.79A47.76,47.76,0,0,0,235.4.55a47.6,47.6,0,0,0-21.52,7.81c-17.81,12.09-20.63,32.52-21.07,36.11"/><path class="cls-3" d="M160.41,106.39c-10.68,13.21-28.55,34.78-51.92,60.43C62.76,217,5.18,272.57,1.21,269c-.8-.73.85-3.73,1.91-5.73,30.11-57,99.4-130.59,117.78-150.25,4.13-4.42,11.56-12.38,20.92-22.56"/><path class="cls-4" d="M141.82,89.66c-.38.29,2.43,6,7.84,10.53s11.21,6.28,11.44,5.86-4.35-2.49-10.51-7.78C144.76,93.26,142.15,89.41,141.82,89.66Z"/><path class="cls-4" d="M145.53,84.61c-.38.29,2.42,6,7.84,10.53s11.21,6.28,11.44,5.86-4.35-2.49-10.51-7.78C148.47,88.21,145.86,84.36,145.53,84.61Z"/><path class="cls-5" d="M192.81,44.48A24,24,0,0,1,196.3,47,25.58,25.58,0,0,1,199.09,50a9.23,9.23,0,0,0-2.6-3.45A8.78,8.78,0,0,0,192.81,44.48Z"/><path class="cls-6" d="M194.47,43.6Q211,23.93,226.63,3.52c.29-.39-.36-.76-.65-.38q-15.55,20.34-32,39.92c-.3.37.22.9.53.54Z"/><path class="cls-6" d="M194.09,41.53c4.36-6.77,9.58-12.58,14.61-18.81C213,17.38,216,11.13,220.42,5.79c.31-.36-.22-.9-.53-.53-4.69,5.61-7.81,12.44-12.57,17.88a153.25,153.25,0,0,0-13.88,18c-.26.4.39.78.65.38Z"/><path class="cls-6" d="M195.7,37Q204.51,23,213.77,9.38c.27-.4-.38-.78-.65-.38q-9.27,13.63-18.06,27.58c-.26.41.39.79.64.38Z"/><path class="cls-6" d="M196.28,45.33a99.7,99.7,0,0,1,20.28-22.79c6.78-5.47,14.29-12.81,17.9-20.91.19-.43-.46-.82-.65-.37-4.2,9.41-12.85,16.37-20.42,22.94A101.81,101.81,0,0,0,195.63,45c-.27.4.38.78.65.38Z"/><path class="cls-6" d="M199,46.75c10.56-14.44,23.89-26.24,35.71-39.58.32-.36-.21-.9-.53-.53C222.34,20,209,31.88,198.37,46.37c-.28.39.37.77.65.38Z"/><path class="cls-6" d="M199.49,47.75c5.65-7,12.23-13.07,18.43-19.55,5.92-6.19,10.7-13.34,16.67-19.47.34-.34-.19-.88-.53-.53-6,6.13-10.75,13.28-16.67,19.47-6.2,6.48-12.78,12.57-18.43,19.55-.3.38.23.91.53.53Z"/><path class="cls-6" d="M200.22,49.07c3.12-1.29,6.4-2.46,9.4-4,2.81-1.47,3.92-3.4,5.72-6a261.59,261.59,0,0,1,17.81-22c.31-.36-.22-.89-.53-.53C228,21.83,223.34,27.17,219,32.77c-2.4,3.12-4.45,6.91-7.27,9.63-3.12,3-7.76,4.31-11.74,5.94-.44.18-.25.91.2.73Z"/><path class="cls-6" d="M200.22,48.41a71.52,71.52,0,0,1,9.41-10.26c2.79-2.47,5.91-4.55,8.42-7.32,5.53-6.09,10.76-12.45,16.35-18.49.32-.36-.2-.89-.53-.53-5.9,6.37-11.25,13.46-17.37,19.58-5.72,5.72-11.95,10.1-16.92,16.64-.3.38.35.76.64.38Z"/><line class="cls-7" x1="219.6" y1="17.8" x2="219.66" y2="17.72"/><line class="cls-7" x1="218.92" y1="18.78" x2="218.92" y2="18.78"/></g></g></svg>