<svg xmlns="http://www.w3.org/2000/svg" viewBox="0 0 207.6 184.18"><defs><style>.cls-1{fill:#693096;stroke:#693096;stroke-miterlimit:10;}</style></defs><title>Asset 18</title><g id="Layer_2" data-name="Layer 2"><g id="Layer_1-2" data-name="Layer 1"><path class="cls-1" d="M146.59,18.25c-4,.6-5.92.91-7.93,1.32-12.49,2.58-18.74,3.87-24.23,2.2-2.57-.78-6.41-3.9-14.1-10.13C91.7,4.64,92,3.79,88.87,2.39,82-.67,73.09,0,66,4.15S52.19,16.43,52.75,24.86c.57,8.59,8.45,12.93,6.16,18.94-.89,2.35-2.8,3.58-5.72,5.29-8.23,4.81-12.34,7.21-22,11C11.7,67.74,3.92,89.08,3.4,90.51a46.76,46.76,0,0,0-2.2,24.23c1.09,5.8,3,15.48,10.13,19.83,10.17,6.17,19.08-5.94,32.51-2.25,12.66,3.48,10.73,15.87,29.27,33.16,5.08,4.74,18.61,16.28,38,17.88,5.72.48,19.72,1.64,30.65-7.56,8.23-6.93,10.74-16.38,11.67-20.09,4.45-17.72-5.53-25.37.25-35.24,4-6.75,8.93-3.45,26-15,11.65-7.88,16.7-13.95,19.38-17.63,4.6-6.3,9.86-13.52,7.49-20.71-2.14-6.5-9.45-9.65-10.57-10.13-3.42-1.47-6.3-1.58-11-1.76-6.87-.26-8.33.9-14.3.77-7.43-.16-12.05-.26-13.89-3-4.31-6.33,11.54-19.38,6.61-29.52a12.13,12.13,0,0,0-6.17-5.73C155.38,17.16,153.67,17.17,146.59,18.25Z"/></g></g></svg>